<svg xmlns="http://www.w3.org/2000/svg" viewBox="0 0 640 420" font-family="IBM Plex Sans, -apple-system, sans-serif">
  <rect width="640" height="420" fill="#fafafa" rx="8"/>

  <!-- Title -->
  <text x="320" y="30" text-anchor="middle" font-size="15" font-weight="700" fill="#2c3e50">Figure 1: F-Gate Dual-Dimension Feasibility Model</text>

  <!-- Task Input -->
  <rect x="245" y="52" width="150" height="34" rx="6" fill="#3B4252"/>
  <text x="320" y="74" text-anchor="middle" fill="#fff" font-size="13" font-weight="600">Task Input</text>

  <!-- Arrow: Task Input → split to Capacity + Memory -->
  <line x1="320" y1="86" x2="320" y2="100" stroke="#95a5a6" stroke-width="1.5"/>
  <line x1="175" y1="100" x2="465" y2="100" stroke="#95a5a6" stroke-width="1.5"/>
  <line x1="175" y1="100" x2="175" y2="114" stroke="#95a5a6" stroke-width="1.5"/>
  <line x1="465" y1="100" x2="465" y2="114" stroke="#95a5a6" stroke-width="1.5"/>
  <polygon points="171,111 175,120 179,111" fill="#95a5a6"/>
  <polygon points="461,111 465,120 469,111" fill="#95a5a6"/>

  <!-- Capacity box -->
  <rect x="40" y="122" width="260" height="80" rx="6" fill="#eaf2f8" stroke="#2980b9" stroke-width="1.5"/>
  <text x="170" y="148" text-anchor="middle" font-size="13" font-weight="700" fill="#2471a3">Dimension 1: Capacity</text>
  <text x="170" y="168" text-anchor="middle" font-size="10" fill="#2c3e50">Task_Estimate &lt; Session_Capacity × 0.7</text>
  <text x="170" y="186" text-anchor="middle" font-size="9" fill="#7f8c8d">Input tokens + Output tokens + Roundtrip tokens</text>

  <!-- Memory box -->
  <rect x="340" y="122" width="260" height="80" rx="6" fill="#f4ecf7" stroke="#8e44ad" stroke-width="1.5"/>
  <text x="470" y="148" text-anchor="middle" font-size="13" font-weight="700" fill="#7d3c98">Dimension 2: Memory</text>
  <text x="470" y="168" text-anchor="middle" font-size="10" fill="#2c3e50">Single-batch / Batchable / Continuous</text>
  <text x="470" y="186" text-anchor="middle" font-size="9" fill="#7f8c8d">Cross-session state requirements</text>

  <!-- Arrows down from boxes to Combined -->
  <line x1="170" y1="202" x2="170" y2="235" stroke="#95a5a6" stroke-width="1.5"/>
  <line x1="470" y1="202" x2="470" y2="235" stroke="#95a5a6" stroke-width="1.5"/>
  <polygon points="166,232 170,240 174,232" fill="#95a5a6"/>
  <polygon points="466,232 470,240 474,232" fill="#95a5a6"/>

  <!-- Combined Judgment -->
  <rect x="195" y="242" width="250" height="34" rx="6" fill="#34495e"/>
  <text x="320" y="264" text-anchor="middle" fill="#fff" font-size="13" font-weight="700">Combined Judgment</text>

  <!-- Arrow down to outcomes -->
  <line x1="320" y1="276" x2="320" y2="298" stroke="#95a5a6" stroke-width="1.5"/>
  <polygon points="316,295 320,304 324,295" fill="#95a5a6"/>

  <!-- Three outcomes -->
  <rect x="30" y="306" width="140" height="40" rx="6" fill="#d5f5e3" stroke="#27ae60" stroke-width="1.5"/>
  <text x="100" y="332" text-anchor="middle" fill="#1e8449" font-size="15" font-weight="700">GO</text>

  <rect x="215" y="306" width="210" height="40" rx="6" fill="#fdebd0" stroke="#e67e22" stroke-width="1.5"/>
  <text x="320" y="326" text-anchor="middle" fill="#b9770e" font-size="13" font-weight="700">SPLIT → Batch Plan</text>
  <text x="320" y="340" text-anchor="middle" fill="#e67e22" font-size="9">re-evaluate after each batch</text>

  <rect x="470" y="306" width="140" height="40" rx="6" fill="#fadbd8" stroke="#e74c3c" stroke-width="1.5"/>
  <text x="540" y="332" text-anchor="middle" fill="#c0392b" font-size="15" font-weight="700">BLOCK</text>

  <!-- Arrow labels -->
  <text x="100" y="300" text-anchor="middle" font-size="9" fill="#27ae60">(GO, GO)</text>
  <text x="320" y="300" text-anchor="middle" font-size="9" fill="#e67e22">(*, SPLIT) or (SPLIT, *)</text>
  <text x="540" y="300" text-anchor="middle" font-size="9" fill="#e74c3c">(*, BLOCK) or (BLOCK, *)</text>

  <!-- Feedback loop from SPLIT back to Task Input -->
  <path d="M 215 340 L 215 370 Q 215 385 200 385 L 35 385 Q 15 385 15 368 L 15 69 L 240 69" fill="none" stroke="#e67e22" stroke-width="1.5" stroke-dasharray="5,3"/>
  <polygon points="237,65 245,69 237,73" fill="#e67e22"/>
  <text x="8" y="230" font-size="9" fill="#e67e22" transform="rotate(-90, 8, 230)">feedback loop (re-evaluate)</text>
</svg>
